<mxfile host="Electron" agent="Mozilla/5.0 (Windows NT 10.0; Win64; x64) AppleWebKit/537.36 (KHTML, like Gecko) draw.io/24.7.8 Chrome/128.0.6613.36 Electron/32.0.1 Safari/537.36" version="24.7.8">
  <diagram name="Page-1" id="Ew1F88ta31NSa2rD1aJ3">
    <mxGraphModel dx="989" dy="577" grid="1" gridSize="10" guides="1" tooltips="1" connect="1" arrows="1" fold="1" page="1" pageScale="1" pageWidth="1100" pageHeight="850" math="0" shadow="0">
      <root>
        <mxCell id="0" />
        <mxCell id="1" parent="0" />
        <mxCell id="II_ciXQIS2AuXDwohKdk-1" value="Master&lt;div&gt;SoC&lt;/div&gt;" style="rounded=0;whiteSpace=wrap;html=1;" parent="1" vertex="1">
          <mxGeometry x="40" y="160" width="120" height="200" as="geometry" />
        </mxCell>
        <mxCell id="II_ciXQIS2AuXDwohKdk-2" value="Tx" style="text;html=1;align=center;verticalAlign=middle;resizable=1;points=[];autosize=1;strokeColor=none;fillColor=none;" parent="1" vertex="1">
          <mxGeometry x="130" y="230" width="30" height="20" as="geometry" />
        </mxCell>
        <mxCell id="II_ciXQIS2AuXDwohKdk-3" value="Rx" style="text;html=1;align=center;verticalAlign=middle;resizable=1;points=[];autosize=1;strokeColor=none;fillColor=none;" parent="1" vertex="1">
          <mxGeometry x="125" y="307.5" width="40" height="20" as="geometry" />
        </mxCell>
        <mxCell id="II_ciXQIS2AuXDwohKdk-4" value="V&lt;sub&gt;dd&lt;/sub&gt;" style="verticalLabelPosition=top;verticalAlign=bottom;shape=mxgraph.electrical.signal_sources.vdd;shadow=0;dashed=0;align=center;strokeWidth=1;fontSize=24;html=1;flipV=1;noLabel=1;" parent="1" vertex="1">
          <mxGeometry x="190" y="130" width="20" height="10" as="geometry" />
        </mxCell>
        <mxCell id="II_ciXQIS2AuXDwohKdk-6" value="V&lt;sub&gt;dd&lt;/sub&gt;" style="text;html=1;align=center;verticalAlign=middle;resizable=1;points=[];autosize=1;strokeColor=none;fillColor=none;" parent="1" vertex="1">
          <mxGeometry x="180" y="103.75" width="40" height="30" as="geometry" />
        </mxCell>
        <mxCell id="II_ciXQIS2AuXDwohKdk-16" value="V&lt;span style=&quot;font-size: 10px;&quot;&gt;&lt;sub&gt;dd2&lt;/sub&gt;&lt;/span&gt;" style="text;html=1;align=center;verticalAlign=middle;resizable=1;points=[];autosize=1;strokeColor=none;fillColor=none;" parent="1" vertex="1">
          <mxGeometry x="215" y="95" width="50" height="30" as="geometry" />
        </mxCell>
        <mxCell id="II_ciXQIS2AuXDwohKdk-21" value="" style="pointerEvents=1;verticalLabelPosition=bottom;shadow=0;dashed=0;align=center;html=1;verticalAlign=top;shape=mxgraph.electrical.waveforms.sine_wave;fontFamily=Helvetica;fontSize=12;fontColor=default;autosize=1;resizable=1;fillColor=none;gradientColor=none;" parent="1" vertex="1">
          <mxGeometry x="410" y="240.94" width="60" height="38.12" as="geometry" />
        </mxCell>
        <mxCell id="II_ciXQIS2AuXDwohKdk-29" value="V&lt;sub&gt;dd&lt;/sub&gt;" style="verticalLabelPosition=top;verticalAlign=bottom;shape=mxgraph.electrical.signal_sources.vdd;shadow=0;dashed=0;align=center;strokeWidth=1;fontSize=24;html=1;flipV=1;noLabel=1;" parent="1" vertex="1">
          <mxGeometry x="230" y="280" width="20" height="10" as="geometry" />
        </mxCell>
        <mxCell id="II_ciXQIS2AuXDwohKdk-30" value="V&lt;sub&gt;dd&lt;/sub&gt;" style="text;html=1;align=center;verticalAlign=middle;resizable=1;points=[];autosize=1;strokeColor=none;fillColor=none;" parent="1" vertex="1">
          <mxGeometry x="180" y="245" width="40" height="30" as="geometry" />
        </mxCell>
        <mxCell id="II_ciXQIS2AuXDwohKdk-32" value="" style="pointerEvents=1;verticalLabelPosition=bottom;shadow=0;dashed=0;align=center;html=1;verticalAlign=top;shape=mxgraph.electrical.resistors.resistor_2;fontFamily=Helvetica;fontSize=12;fontColor=default;autosize=1;resizable=1;fillColor=none;gradientColor=none;direction=south;" parent="1" vertex="1">
          <mxGeometry x="235" y="287.5" width="10" height="42.5" as="geometry" />
        </mxCell>
        <mxCell id="II_ciXQIS2AuXDwohKdk-37" value="V&lt;sub&gt;dd&lt;/sub&gt;" style="verticalLabelPosition=top;verticalAlign=bottom;shape=mxgraph.electrical.signal_sources.vdd;shadow=0;dashed=0;align=center;strokeWidth=1;fontSize=24;html=1;flipV=1;noLabel=1;" parent="1" vertex="1">
          <mxGeometry x="190" y="270" width="20" height="10" as="geometry" />
        </mxCell>
        <mxCell id="II_ciXQIS2AuXDwohKdk-39" value="" style="pointerEvents=1;verticalLabelPosition=bottom;shadow=0;dashed=0;align=center;html=1;verticalAlign=top;shape=mxgraph.electrical.resistors.resistor_2;fontFamily=Helvetica;fontSize=12;fontColor=default;autosize=1;resizable=1;fillColor=none;gradientColor=none;direction=south;" parent="1" vertex="1">
          <mxGeometry x="195" y="277.5" width="10" height="42.5" as="geometry" />
        </mxCell>
        <mxCell id="II_ciXQIS2AuXDwohKdk-40" value="" style="pointerEvents=1;verticalLabelPosition=bottom;shadow=0;dashed=0;align=center;html=1;verticalAlign=top;shape=mxgraph.electrical.signal_sources.protective_earth;fontFamily=Helvetica;fontSize=12;fontColor=default;autosize=1;resizable=1;fillColor=none;gradientColor=none;" parent="1" vertex="1">
          <mxGeometry x="187.5" y="370" width="25" height="20" as="geometry" />
        </mxCell>
        <mxCell id="II_ciXQIS2AuXDwohKdk-44" value="" style="endArrow=none;html=1;rounded=0;fontFamily=Helvetica;fontSize=12;fontColor=default;autosize=1;resizable=1;entryX=0.5;entryY=0;entryDx=0;entryDy=0;entryPerimeter=0;exitX=0;exitY=0.5;exitDx=0;exitDy=0;exitPerimeter=0;" parent="1" source="II_ciXQIS2AuXDwohKdk-32" target="II_ciXQIS2AuXDwohKdk-29" edge="1">
          <mxGeometry width="50" height="50" relative="1" as="geometry">
            <mxPoint x="200" y="310" as="sourcePoint" />
            <mxPoint x="250" y="260" as="targetPoint" />
          </mxGeometry>
        </mxCell>
        <mxCell id="II_ciXQIS2AuXDwohKdk-46" value="V&lt;span style=&quot;font-size: 10px;&quot;&gt;&lt;sub&gt;dd2&lt;/sub&gt;&lt;/span&gt;" style="text;html=1;align=center;verticalAlign=middle;resizable=1;points=[];autosize=1;strokeColor=none;fillColor=none;" parent="1" vertex="1">
          <mxGeometry x="215" y="255.25" width="50" height="30" as="geometry" />
        </mxCell>
        <mxCell id="II_ciXQIS2AuXDwohKdk-52" value="" style="triangle;whiteSpace=wrap;html=1;align=center;verticalAlign=middle;fontFamily=Helvetica;fontSize=12;fontColor=default;autosize=1;resizable=1;fillColor=none;gradientColor=none;" parent="1" vertex="1">
          <mxGeometry x="290.5" y="183" width="29.5" height="34" as="geometry" />
        </mxCell>
        <mxCell id="II_ciXQIS2AuXDwohKdk-53" value="" style="triangle;whiteSpace=wrap;html=1;align=center;verticalAlign=middle;fontFamily=Helvetica;fontSize=12;fontColor=default;autosize=1;resizable=1;fillColor=none;gradientColor=none;flipH=1;" parent="1" vertex="1">
          <mxGeometry x="290" y="303" width="29.5" height="34" as="geometry" />
        </mxCell>
        <mxCell id="II_ciXQIS2AuXDwohKdk-54" value="" style="ellipse;whiteSpace=wrap;html=1;aspect=fixed;align=center;verticalAlign=middle;fontFamily=Helvetica;fontSize=12;fontColor=default;autosize=1;resizable=1;fillColor=none;gradientColor=none;" parent="1" vertex="1">
          <mxGeometry x="319.5" y="327.5" width="5" height="5" as="geometry" />
        </mxCell>
        <mxCell id="II_ciXQIS2AuXDwohKdk-56" value="" style="endArrow=none;html=1;rounded=0;fontFamily=Helvetica;fontSize=12;fontColor=default;autosize=1;resizable=1;exitX=0.426;exitY=0.795;exitDx=0;exitDy=0;exitPerimeter=0;" parent="1" source="II_ciXQIS2AuXDwohKdk-52" edge="1">
          <mxGeometry width="50" height="50" relative="1" as="geometry">
            <mxPoint x="309.75" y="210" as="sourcePoint" />
            <mxPoint x="320" y="310" as="targetPoint" />
            <Array as="points">
              <mxPoint x="330" y="210" />
              <mxPoint x="330" y="310" />
            </Array>
          </mxGeometry>
        </mxCell>
        <mxCell id="II_ciXQIS2AuXDwohKdk-60" value="" style="pointerEvents=1;verticalLabelPosition=bottom;shadow=0;dashed=0;align=center;html=1;verticalAlign=top;shape=mxgraph.electrical.waveforms.sine_wave;fontFamily=Helvetica;fontSize=12;fontColor=default;autosize=1;resizable=1;fillColor=none;gradientColor=none;flipH=1;" parent="1" vertex="1">
          <mxGeometry x="410" y="240.94" width="60" height="38.12" as="geometry" />
        </mxCell>
        <mxCell id="II_ciXQIS2AuXDwohKdk-67" value="" style="curved=1;endArrow=none;html=1;rounded=0;fontFamily=Helvetica;fontSize=12;fontColor=default;autosize=1;resizable=1;fillOpacity=3;endFill=0;" parent="1" edge="1">
          <mxGeometry width="50" height="50" relative="1" as="geometry">
            <mxPoint x="379" y="250" as="sourcePoint" />
            <mxPoint x="409" y="260" as="targetPoint" />
            <Array as="points">
              <mxPoint x="399" y="240" />
            </Array>
          </mxGeometry>
        </mxCell>
        <mxCell id="II_ciXQIS2AuXDwohKdk-68" value="" style="curved=1;endArrow=none;html=1;rounded=0;fontFamily=Helvetica;fontSize=12;fontColor=default;autosize=1;resizable=1;fillOpacity=3;endFill=0;" parent="1" edge="1">
          <mxGeometry width="50" height="50" relative="1" as="geometry">
            <mxPoint x="379" y="269.99699999999996" as="sourcePoint" />
            <mxPoint x="409" y="260" as="targetPoint" />
            <Array as="points">
              <mxPoint x="399" y="279.99699999999996" />
            </Array>
          </mxGeometry>
        </mxCell>
        <mxCell id="II_ciXQIS2AuXDwohKdk-69" value="" style="pointerEvents=1;verticalLabelPosition=bottom;shadow=0;dashed=0;align=center;html=1;verticalAlign=top;shape=mxgraph.electrical.waveforms.sine_wave;fontFamily=Helvetica;fontSize=12;fontColor=default;autosize=1;resizable=1;fillColor=none;gradientColor=none;" parent="1" vertex="1">
          <mxGeometry x="470" y="240.94" width="60" height="38.12" as="geometry" />
        </mxCell>
        <mxCell id="II_ciXQIS2AuXDwohKdk-70" value="" style="pointerEvents=1;verticalLabelPosition=bottom;shadow=0;dashed=0;align=center;html=1;verticalAlign=top;shape=mxgraph.electrical.waveforms.sine_wave;fontFamily=Helvetica;fontSize=12;fontColor=default;autosize=1;resizable=1;fillColor=none;gradientColor=none;flipH=1;" parent="1" vertex="1">
          <mxGeometry x="470" y="240.94" width="60" height="38.12" as="geometry" />
        </mxCell>
        <mxCell id="II_ciXQIS2AuXDwohKdk-84" value="" style="endArrow=none;html=1;rounded=0;fontFamily=Helvetica;fontSize=12;fontColor=default;autosize=1;resizable=1;" parent="1" edge="1">
          <mxGeometry width="50" height="50" relative="1" as="geometry">
            <mxPoint x="330" y="270" as="sourcePoint" />
            <mxPoint x="380" y="270" as="targetPoint" />
          </mxGeometry>
        </mxCell>
        <mxCell id="II_ciXQIS2AuXDwohKdk-85" value="" style="endArrow=none;html=1;rounded=0;fontFamily=Helvetica;fontSize=12;fontColor=default;autosize=1;resizable=1;" parent="1" edge="1">
          <mxGeometry width="50" height="50" relative="1" as="geometry">
            <mxPoint x="350" y="250" as="sourcePoint" />
            <mxPoint x="380" y="250" as="targetPoint" />
          </mxGeometry>
        </mxCell>
        <mxCell id="II_ciXQIS2AuXDwohKdk-86" value="" style="pointerEvents=1;verticalLabelPosition=bottom;shadow=0;dashed=0;align=center;html=1;verticalAlign=top;shape=mxgraph.electrical.resistors.resistor_2;fontFamily=Helvetica;fontSize=12;fontColor=default;autosize=1;resizable=1;fillColor=none;gradientColor=none;direction=south;" parent="1" vertex="1">
          <mxGeometry x="365.5" y="250" width="5" height="20" as="geometry" />
        </mxCell>
        <mxCell id="II_ciXQIS2AuXDwohKdk-124" value="" style="curved=1;endArrow=none;html=1;rounded=0;fontFamily=Helvetica;fontSize=12;fontColor=default;autosize=1;resizable=1;fillOpacity=3;endFill=0;" parent="1" edge="1">
          <mxGeometry width="50" height="50" relative="1" as="geometry">
            <mxPoint x="560" y="250" as="sourcePoint" />
            <mxPoint x="530" y="260" as="targetPoint" />
            <Array as="points">
              <mxPoint x="540" y="240" />
            </Array>
          </mxGeometry>
        </mxCell>
        <mxCell id="II_ciXQIS2AuXDwohKdk-125" value="" style="curved=1;endArrow=none;html=1;rounded=0;fontFamily=Helvetica;fontSize=12;fontColor=default;autosize=1;resizable=1;fillOpacity=3;endFill=0;" parent="1" edge="1">
          <mxGeometry width="50" height="50" relative="1" as="geometry">
            <mxPoint x="560" y="269.99699999999996" as="sourcePoint" />
            <mxPoint x="530" y="260" as="targetPoint" />
            <Array as="points">
              <mxPoint x="540" y="279.99699999999996" />
            </Array>
          </mxGeometry>
        </mxCell>
        <mxCell id="II_ciXQIS2AuXDwohKdk-143" value="" style="endArrow=none;html=1;rounded=0;fontFamily=Helvetica;fontSize=12;fontColor=default;autosize=1;resizable=1;" parent="1" edge="1">
          <mxGeometry width="50" height="50" relative="1" as="geometry">
            <mxPoint x="591" y="330" as="sourcePoint" />
            <mxPoint x="632" y="190" as="targetPoint" />
            <Array as="points">
              <mxPoint x="591" y="190" />
            </Array>
          </mxGeometry>
        </mxCell>
        <mxCell id="II_ciXQIS2AuXDwohKdk-147" value="" style="endArrow=none;html=1;rounded=0;fontFamily=Helvetica;fontSize=12;fontColor=default;autosize=1;resizable=1;" parent="1" target="II_ciXQIS2AuXDwohKdk-149" edge="1">
          <mxGeometry width="50" height="50" relative="1" as="geometry">
            <mxPoint x="611" y="310" as="sourcePoint" />
            <mxPoint x="612" y="210" as="targetPoint" />
            <Array as="points">
              <mxPoint x="611" y="210" />
            </Array>
          </mxGeometry>
        </mxCell>
        <mxCell id="II_ciXQIS2AuXDwohKdk-149" value="" style="ellipse;whiteSpace=wrap;html=1;aspect=fixed;align=center;verticalAlign=middle;fontFamily=Helvetica;fontSize=12;fontColor=default;autosize=1;resizable=1;fillColor=none;gradientColor=none;" parent="1" vertex="1">
          <mxGeometry x="625.5" y="206.5" width="6.5" height="6.5" as="geometry" />
        </mxCell>
        <mxCell id="II_ciXQIS2AuXDwohKdk-151" value="V&lt;sub&gt;dd&lt;/sub&gt;" style="verticalLabelPosition=top;verticalAlign=bottom;shape=mxgraph.electrical.signal_sources.vdd;shadow=0;dashed=0;align=center;strokeWidth=1;fontSize=24;html=1;flipV=1;noLabel=1;" parent="1" vertex="1">
          <mxGeometry x="722" y="70.5" width="20" height="10" as="geometry" />
        </mxCell>
        <mxCell id="II_ciXQIS2AuXDwohKdk-152" value="V&lt;span style=&quot;font-size: 10px;&quot;&gt;&lt;sub&gt;dd2&lt;/sub&gt;&lt;/span&gt;" style="text;html=1;align=center;verticalAlign=middle;resizable=1;points=[];autosize=1;strokeColor=none;fillColor=none;" parent="1" vertex="1">
          <mxGeometry x="667" y="65" width="50" height="30" as="geometry" />
        </mxCell>
        <mxCell id="II_ciXQIS2AuXDwohKdk-153" value="" style="pointerEvents=1;verticalLabelPosition=bottom;shadow=0;dashed=0;align=center;html=1;verticalAlign=top;shape=mxgraph.electrical.resistors.resistor_2;fontFamily=Helvetica;fontSize=12;fontColor=default;autosize=1;resizable=1;fillColor=none;gradientColor=none;direction=south;" parent="1" vertex="1">
          <mxGeometry x="727" y="78" width="10" height="42.5" as="geometry" />
        </mxCell>
        <mxCell id="II_ciXQIS2AuXDwohKdk-154" value="" style="pointerEvents=1;verticalLabelPosition=bottom;shadow=0;dashed=0;align=center;html=1;verticalAlign=top;shape=mxgraph.electrical.signal_sources.protective_earth;fontFamily=Helvetica;fontSize=12;fontColor=default;autosize=1;resizable=1;fillColor=none;gradientColor=none;" parent="1" vertex="1">
          <mxGeometry x="719.5" y="180" width="25" height="20" as="geometry" />
        </mxCell>
        <mxCell id="II_ciXQIS2AuXDwohKdk-163" value="V&lt;sub&gt;dd&lt;/sub&gt;" style="verticalLabelPosition=top;verticalAlign=bottom;shape=mxgraph.electrical.signal_sources.vdd;shadow=0;dashed=0;align=center;strokeWidth=1;fontSize=24;html=1;flipV=1;noLabel=1;" parent="1" vertex="1">
          <mxGeometry x="682" y="90" width="20" height="10" as="geometry" />
        </mxCell>
        <mxCell id="II_ciXQIS2AuXDwohKdk-166" value="" style="pointerEvents=1;verticalLabelPosition=bottom;shadow=0;dashed=0;align=center;html=1;verticalAlign=top;shape=mxgraph.electrical.resistors.resistor_2;fontFamily=Helvetica;fontSize=12;fontColor=default;autosize=1;resizable=1;fillColor=none;gradientColor=none;direction=south;" parent="1" vertex="1">
          <mxGeometry x="687" y="98" width="10" height="42.5" as="geometry" />
        </mxCell>
        <mxCell id="II_ciXQIS2AuXDwohKdk-169" value="" style="endArrow=none;html=1;rounded=0;fontFamily=Helvetica;fontSize=12;fontColor=default;autosize=1;resizable=1;exitX=1;exitY=0.5;exitDx=0;exitDy=0;entryX=0.195;entryY=1;entryDx=0;entryDy=0;entryPerimeter=0;" parent="1" source="II_ciXQIS2AuXDwohKdk-170" target="WEMtZeiqqdGl7kNgZ0zi-21" edge="1">
          <mxGeometry width="50" height="50" relative="1" as="geometry">
            <mxPoint x="672" y="200.0000000000001" as="sourcePoint" />
            <mxPoint x="704.5" y="217" as="targetPoint" />
            <Array as="points">
              <mxPoint x="692" y="200" />
              <mxPoint x="692" y="180" />
            </Array>
          </mxGeometry>
        </mxCell>
        <mxCell id="II_ciXQIS2AuXDwohKdk-170" value="" style="triangle;whiteSpace=wrap;html=1;align=center;verticalAlign=middle;fontFamily=Helvetica;fontSize=12;fontColor=default;autosize=1;resizable=1;fillColor=none;gradientColor=none;" parent="1" vertex="1">
          <mxGeometry x="632.5" y="183" width="29.5" height="34" as="geometry" />
        </mxCell>
        <mxCell id="II_ciXQIS2AuXDwohKdk-171" value="Slave&lt;div&gt;Soc&lt;/div&gt;" style="rounded=0;whiteSpace=wrap;html=1;" parent="1" vertex="1">
          <mxGeometry x="801" y="180" width="70" height="150" as="geometry" />
        </mxCell>
        <mxCell id="II_ciXQIS2AuXDwohKdk-185" value="" style="triangle;whiteSpace=wrap;html=1;align=center;verticalAlign=middle;fontFamily=Helvetica;fontSize=12;fontColor=default;autosize=1;resizable=1;fillColor=none;gradientColor=none;flipH=1;" parent="1" vertex="1">
          <mxGeometry x="632.5" y="303" width="29.5" height="34" as="geometry" />
        </mxCell>
        <mxCell id="II_ciXQIS2AuXDwohKdk-186" value="" style="ellipse;whiteSpace=wrap;html=1;aspect=fixed;align=center;verticalAlign=middle;fontFamily=Helvetica;fontSize=12;fontColor=default;autosize=1;resizable=1;fillColor=none;gradientColor=none;" parent="1" vertex="1">
          <mxGeometry x="642" y="307.5" width="5" height="5" as="geometry" />
        </mxCell>
        <mxCell id="II_ciXQIS2AuXDwohKdk-189" value="" style="endArrow=none;html=1;rounded=0;fontFamily=Helvetica;fontSize=12;fontColor=default;autosize=1;resizable=1;entryX=0;entryY=0.5;entryDx=0;entryDy=0;" parent="1" edge="1">
          <mxGeometry width="50" height="50" relative="1" as="geometry">
            <mxPoint x="611" y="310" as="sourcePoint" />
            <mxPoint x="643" y="310" as="targetPoint" />
          </mxGeometry>
        </mxCell>
        <mxCell id="II_ciXQIS2AuXDwohKdk-190" value="" style="endArrow=none;html=1;rounded=0;fontFamily=Helvetica;fontSize=12;fontColor=default;autosize=1;resizable=1;entryX=0.434;entryY=0.787;entryDx=0;entryDy=0;entryPerimeter=0;" parent="1" target="II_ciXQIS2AuXDwohKdk-185" edge="1">
          <mxGeometry width="50" height="50" relative="1" as="geometry">
            <mxPoint x="591" y="330" as="sourcePoint" />
            <mxPoint x="651" y="330" as="targetPoint" />
          </mxGeometry>
        </mxCell>
        <mxCell id="II_ciXQIS2AuXDwohKdk-194" value="" style="ellipse;whiteSpace=wrap;html=1;aspect=fixed;align=center;verticalAlign=middle;fontFamily=Helvetica;fontSize=12;fontColor=default;autosize=1;resizable=1;fillColor=none;gradientColor=none;" parent="1" vertex="1">
          <mxGeometry x="306.5" y="186.5" width="6.5" height="6.5" as="geometry" />
        </mxCell>
        <mxCell id="II_ciXQIS2AuXDwohKdk-195" value="" style="endArrow=none;html=1;rounded=0;fontFamily=Helvetica;fontSize=12;fontColor=default;autosize=1;resizable=1;exitX=1;exitY=0.5;exitDx=0;exitDy=0;entryX=1;entryY=0.5;entryDx=0;entryDy=0;" parent="1" source="II_ciXQIS2AuXDwohKdk-194" edge="1" target="II_ciXQIS2AuXDwohKdk-54">
          <mxGeometry width="50" height="50" relative="1" as="geometry">
            <mxPoint x="330" y="230" as="sourcePoint" />
            <mxPoint x="350" y="330" as="targetPoint" />
            <Array as="points">
              <mxPoint x="350" y="190" />
              <mxPoint x="350" y="330" />
            </Array>
          </mxGeometry>
        </mxCell>
        <mxCell id="II_ciXQIS2AuXDwohKdk-198" value="" style="endArrow=none;html=1;rounded=0;fontFamily=Helvetica;fontSize=12;fontColor=default;autosize=1;resizable=1;" parent="1" edge="1">
          <mxGeometry width="50" height="50" relative="1" as="geometry">
            <mxPoint x="801" y="200" as="sourcePoint" />
            <mxPoint x="781" y="130" as="targetPoint" />
            <Array as="points">
              <mxPoint x="781" y="200" />
            </Array>
          </mxGeometry>
        </mxCell>
        <mxCell id="II_ciXQIS2AuXDwohKdk-199" value="" style="endArrow=none;html=1;rounded=0;fontFamily=Helvetica;fontSize=12;fontColor=default;autosize=1;resizable=1;entryX=0.195;entryY=1;entryDx=0;entryDy=0;entryPerimeter=0;exitX=0;exitY=0.867;exitDx=0;exitDy=0;exitPerimeter=0;" parent="1" source="II_ciXQIS2AuXDwohKdk-171" target="WEMtZeiqqdGl7kNgZ0zi-40" edge="1">
          <mxGeometry width="50" height="50" relative="1" as="geometry">
            <mxPoint x="792" y="300" as="sourcePoint" />
            <mxPoint x="722" y="370" as="targetPoint" />
            <Array as="points">
              <mxPoint x="782" y="310" />
              <mxPoint x="782" y="390" />
              <mxPoint x="732" y="390" />
            </Array>
          </mxGeometry>
        </mxCell>
        <mxCell id="II_ciXQIS2AuXDwohKdk-200" value="Tx" style="text;html=1;align=center;verticalAlign=middle;resizable=1;points=[];autosize=1;strokeColor=none;fillColor=none;" parent="1" vertex="1">
          <mxGeometry x="791" y="298.75" width="40" height="20" as="geometry" />
        </mxCell>
        <mxCell id="II_ciXQIS2AuXDwohKdk-201" value="Rx" style="text;html=1;align=center;verticalAlign=middle;resizable=1;points=[];autosize=1;strokeColor=none;fillColor=none;" parent="1" vertex="1">
          <mxGeometry x="791" y="190" width="40" height="20" as="geometry" />
        </mxCell>
        <mxCell id="II_ciXQIS2AuXDwohKdk-207" value="" style="pointerEvents=1;verticalLabelPosition=bottom;shadow=0;dashed=0;align=center;html=1;verticalAlign=top;shape=mxgraph.electrical.signal_sources.protective_earth;fontFamily=Helvetica;fontSize=12;fontColor=default;autosize=1;resizable=1;fillColor=none;gradientColor=none;" parent="1" vertex="1">
          <mxGeometry x="227.5" y="220" width="25" height="20" as="geometry" />
        </mxCell>
        <mxCell id="WEMtZeiqqdGl7kNgZ0zi-1" value="" style="verticalLabelPosition=bottom;shadow=0;dashed=0;align=center;html=1;verticalAlign=top;shape=mxgraph.electrical.opto_electronics.opto-coupler;aspect=fixed;" parent="1" vertex="1">
          <mxGeometry x="187.5" y="180" width="65" height="40" as="geometry" />
        </mxCell>
        <mxCell id="WEMtZeiqqdGl7kNgZ0zi-2" value="" style="endArrow=none;html=1;rounded=0;entryX=1;entryY=0.4;entryDx=0;entryDy=0;entryPerimeter=0;exitX=0.195;exitY=1;exitDx=0;exitDy=0;exitPerimeter=0;" parent="1" source="WEMtZeiqqdGl7kNgZ0zi-1" target="II_ciXQIS2AuXDwohKdk-1" edge="1">
          <mxGeometry width="50" height="50" relative="1" as="geometry">
            <mxPoint x="200" y="240" as="sourcePoint" />
            <mxPoint x="170" y="240" as="targetPoint" />
            <Array as="points">
              <mxPoint x="200" y="240" />
            </Array>
          </mxGeometry>
        </mxCell>
        <mxCell id="WEMtZeiqqdGl7kNgZ0zi-6" value="" style="endArrow=none;html=1;rounded=0;entryX=0;entryY=0.5;entryDx=0;entryDy=0;exitX=0.8;exitY=0;exitDx=0;exitDy=0;exitPerimeter=0;" parent="1" source="WEMtZeiqqdGl7kNgZ0zi-1" target="II_ciXQIS2AuXDwohKdk-52" edge="1">
          <mxGeometry width="50" height="50" relative="1" as="geometry">
            <mxPoint x="170" y="280" as="sourcePoint" />
            <mxPoint x="220" y="230" as="targetPoint" />
            <Array as="points">
              <mxPoint x="240" y="170" />
              <mxPoint x="270" y="170" />
              <mxPoint x="270" y="200" />
            </Array>
          </mxGeometry>
        </mxCell>
        <mxCell id="WEMtZeiqqdGl7kNgZ0zi-7" value="" style="pointerEvents=1;verticalLabelPosition=bottom;shadow=0;dashed=0;align=center;html=1;verticalAlign=top;shape=mxgraph.electrical.resistors.resistor_2;fontFamily=Helvetica;fontSize=12;fontColor=default;autosize=1;resizable=1;fillColor=none;gradientColor=none;direction=south;" parent="1" vertex="1">
          <mxGeometry x="195" y="137.5" width="10" height="42.5" as="geometry" />
        </mxCell>
        <mxCell id="WEMtZeiqqdGl7kNgZ0zi-8" value="V&lt;sub&gt;dd&lt;/sub&gt;" style="verticalLabelPosition=top;verticalAlign=bottom;shape=mxgraph.electrical.signal_sources.vdd;shadow=0;dashed=0;align=center;strokeWidth=1;fontSize=24;html=1;flipV=1;noLabel=1;" parent="1" vertex="1">
          <mxGeometry x="230" y="120.5" width="20" height="10" as="geometry" />
        </mxCell>
        <mxCell id="WEMtZeiqqdGl7kNgZ0zi-9" value="" style="pointerEvents=1;verticalLabelPosition=bottom;shadow=0;dashed=0;align=center;html=1;verticalAlign=top;shape=mxgraph.electrical.resistors.resistor_2;fontFamily=Helvetica;fontSize=12;fontColor=default;autosize=1;resizable=1;fillColor=none;gradientColor=none;direction=south;" parent="1" vertex="1">
          <mxGeometry x="235" y="127" width="10" height="42.5" as="geometry" />
        </mxCell>
        <mxCell id="WEMtZeiqqdGl7kNgZ0zi-10" value="" style="verticalLabelPosition=bottom;shadow=0;dashed=0;align=center;html=1;verticalAlign=top;shape=mxgraph.electrical.opto_electronics.opto-coupler;aspect=fixed;flipV=0;flipH=1;" parent="1" vertex="1">
          <mxGeometry x="187.5" y="330" width="65" height="40" as="geometry" />
        </mxCell>
        <mxCell id="WEMtZeiqqdGl7kNgZ0zi-11" value="" style="endArrow=none;html=1;rounded=0;exitX=1;exitY=0.5;exitDx=0;exitDy=0;exitPerimeter=0;entryX=0.8;entryY=0;entryDx=0;entryDy=0;entryPerimeter=0;" parent="1" source="II_ciXQIS2AuXDwohKdk-39" target="WEMtZeiqqdGl7kNgZ0zi-10" edge="1">
          <mxGeometry width="50" height="50" relative="1" as="geometry">
            <mxPoint x="220" y="330" as="sourcePoint" />
            <mxPoint x="270" y="280" as="targetPoint" />
          </mxGeometry>
        </mxCell>
        <mxCell id="WEMtZeiqqdGl7kNgZ0zi-12" value="" style="endArrow=none;html=1;rounded=0;entryX=1;entryY=0.5;entryDx=0;entryDy=0;entryPerimeter=0;exitX=0.195;exitY=0;exitDx=0;exitDy=0;exitPerimeter=0;" parent="1" target="II_ciXQIS2AuXDwohKdk-32" edge="1">
          <mxGeometry width="50" height="50" relative="1" as="geometry">
            <mxPoint x="239.82500000000005" y="331" as="sourcePoint" />
            <mxPoint x="240" y="271" as="targetPoint" />
          </mxGeometry>
        </mxCell>
        <mxCell id="WEMtZeiqqdGl7kNgZ0zi-13" value="" style="endArrow=none;html=1;rounded=0;entryX=1;entryY=0.8;entryDx=0;entryDy=0;entryPerimeter=0;" parent="1" target="II_ciXQIS2AuXDwohKdk-1" edge="1">
          <mxGeometry width="50" height="50" relative="1" as="geometry">
            <mxPoint x="200" y="320" as="sourcePoint" />
            <mxPoint x="220" y="260" as="targetPoint" />
          </mxGeometry>
        </mxCell>
        <mxCell id="WEMtZeiqqdGl7kNgZ0zi-14" value="" style="endArrow=none;html=1;rounded=0;entryX=0;entryY=0.5;entryDx=0;entryDy=0;exitX=0.195;exitY=1;exitDx=0;exitDy=0;exitPerimeter=0;" parent="1" source="WEMtZeiqqdGl7kNgZ0zi-10" target="II_ciXQIS2AuXDwohKdk-53" edge="1">
          <mxGeometry width="50" height="50" relative="1" as="geometry">
            <mxPoint x="210" y="340" as="sourcePoint" />
            <mxPoint x="260" y="290" as="targetPoint" />
            <Array as="points">
              <mxPoint x="240" y="390" />
              <mxPoint x="270" y="390" />
              <mxPoint x="270" y="320" />
            </Array>
          </mxGeometry>
        </mxCell>
        <mxCell id="WEMtZeiqqdGl7kNgZ0zi-17" value="GND" style="text;html=1;align=center;verticalAlign=middle;resizable=0;points=[];autosize=1;strokeColor=none;fillColor=none;" parent="1" vertex="1">
          <mxGeometry x="155" y="375" width="50" height="30" as="geometry" />
        </mxCell>
        <mxCell id="WEMtZeiqqdGl7kNgZ0zi-20" value="GND&lt;sub&gt;2&lt;/sub&gt;" style="text;html=1;align=center;verticalAlign=middle;resizable=0;points=[];autosize=1;strokeColor=none;fillColor=none;" parent="1" vertex="1">
          <mxGeometry x="647" y="380.48" width="60" height="30" as="geometry" />
        </mxCell>
        <mxCell id="WEMtZeiqqdGl7kNgZ0zi-21" value="" style="verticalLabelPosition=bottom;shadow=0;dashed=0;align=center;html=1;verticalAlign=top;shape=mxgraph.electrical.opto_electronics.opto-coupler;aspect=fixed;" parent="1" vertex="1">
          <mxGeometry x="679.5" y="140" width="65" height="40" as="geometry" />
        </mxCell>
        <mxCell id="WEMtZeiqqdGl7kNgZ0zi-22" value="" style="endArrow=none;html=1;rounded=0;entryX=1;entryY=0.5;entryDx=0;entryDy=0;entryPerimeter=0;exitX=0.195;exitY=0;exitDx=0;exitDy=0;exitPerimeter=0;" parent="1" source="WEMtZeiqqdGl7kNgZ0zi-21" target="II_ciXQIS2AuXDwohKdk-166" edge="1">
          <mxGeometry width="50" height="50" relative="1" as="geometry">
            <mxPoint x="532" y="210" as="sourcePoint" />
            <mxPoint x="652" y="120" as="targetPoint" />
          </mxGeometry>
        </mxCell>
        <mxCell id="WEMtZeiqqdGl7kNgZ0zi-33" value="V&lt;sub&gt;dd&lt;/sub&gt;" style="verticalLabelPosition=top;verticalAlign=bottom;shape=mxgraph.electrical.signal_sources.vdd;shadow=0;dashed=0;align=center;strokeWidth=1;fontSize=24;html=1;flipV=1;noLabel=1;" parent="1" vertex="1">
          <mxGeometry x="722" y="280" width="20" height="10" as="geometry" />
        </mxCell>
        <mxCell id="WEMtZeiqqdGl7kNgZ0zi-34" value="" style="pointerEvents=1;verticalLabelPosition=bottom;shadow=0;dashed=0;align=center;html=1;verticalAlign=top;shape=mxgraph.electrical.resistors.resistor_2;fontFamily=Helvetica;fontSize=12;fontColor=default;autosize=1;resizable=1;fillColor=none;gradientColor=none;direction=south;" parent="1" vertex="1">
          <mxGeometry x="727" y="287.5" width="10" height="42.5" as="geometry" />
        </mxCell>
        <mxCell id="WEMtZeiqqdGl7kNgZ0zi-35" value="V&lt;sub&gt;dd&lt;/sub&gt;" style="verticalLabelPosition=top;verticalAlign=bottom;shape=mxgraph.electrical.signal_sources.vdd;shadow=0;dashed=0;align=center;strokeWidth=1;fontSize=24;html=1;flipV=1;noLabel=1;" parent="1" vertex="1">
          <mxGeometry x="682" y="270" width="20" height="10" as="geometry" />
        </mxCell>
        <mxCell id="WEMtZeiqqdGl7kNgZ0zi-36" value="" style="pointerEvents=1;verticalLabelPosition=bottom;shadow=0;dashed=0;align=center;html=1;verticalAlign=top;shape=mxgraph.electrical.resistors.resistor_2;fontFamily=Helvetica;fontSize=12;fontColor=default;autosize=1;resizable=1;fillColor=none;gradientColor=none;direction=south;" parent="1" vertex="1">
          <mxGeometry x="687" y="277.5" width="10" height="42.5" as="geometry" />
        </mxCell>
        <mxCell id="WEMtZeiqqdGl7kNgZ0zi-37" value="" style="pointerEvents=1;verticalLabelPosition=bottom;shadow=0;dashed=0;align=center;html=1;verticalAlign=top;shape=mxgraph.electrical.signal_sources.protective_earth;fontFamily=Helvetica;fontSize=12;fontColor=default;autosize=1;resizable=1;fillColor=none;gradientColor=none;" parent="1" vertex="1">
          <mxGeometry x="679.5" y="370" width="25" height="20" as="geometry" />
        </mxCell>
        <mxCell id="WEMtZeiqqdGl7kNgZ0zi-38" value="" style="endArrow=none;html=1;rounded=0;fontFamily=Helvetica;fontSize=12;fontColor=default;autosize=1;resizable=1;entryX=0.5;entryY=0;entryDx=0;entryDy=0;entryPerimeter=0;exitX=0;exitY=0.5;exitDx=0;exitDy=0;exitPerimeter=0;" parent="1" source="WEMtZeiqqdGl7kNgZ0zi-34" target="WEMtZeiqqdGl7kNgZ0zi-33" edge="1">
          <mxGeometry width="50" height="50" relative="1" as="geometry">
            <mxPoint x="692" y="310" as="sourcePoint" />
            <mxPoint x="742" y="260" as="targetPoint" />
          </mxGeometry>
        </mxCell>
        <mxCell id="WEMtZeiqqdGl7kNgZ0zi-39" value="V&lt;span style=&quot;font-size: 10px;&quot;&gt;&lt;sub&gt;dd&lt;/sub&gt;&lt;/span&gt;" style="text;html=1;align=center;verticalAlign=middle;resizable=1;points=[];autosize=1;strokeColor=none;fillColor=none;" parent="1" vertex="1">
          <mxGeometry x="710.5" y="255.25" width="40" height="30" as="geometry" />
        </mxCell>
        <mxCell id="WEMtZeiqqdGl7kNgZ0zi-40" value="" style="verticalLabelPosition=bottom;shadow=0;dashed=0;align=center;html=1;verticalAlign=top;shape=mxgraph.electrical.opto_electronics.opto-coupler;aspect=fixed;flipV=0;flipH=1;" parent="1" vertex="1">
          <mxGeometry x="679.5" y="330" width="65" height="40" as="geometry" />
        </mxCell>
        <mxCell id="WEMtZeiqqdGl7kNgZ0zi-41" value="" style="endArrow=none;html=1;rounded=0;exitX=1;exitY=0.5;exitDx=0;exitDy=0;exitPerimeter=0;entryX=0.8;entryY=0;entryDx=0;entryDy=0;entryPerimeter=0;" parent="1" source="WEMtZeiqqdGl7kNgZ0zi-36" target="WEMtZeiqqdGl7kNgZ0zi-40" edge="1">
          <mxGeometry width="50" height="50" relative="1" as="geometry">
            <mxPoint x="712" y="330" as="sourcePoint" />
            <mxPoint x="762" y="280" as="targetPoint" />
          </mxGeometry>
        </mxCell>
        <mxCell id="WEMtZeiqqdGl7kNgZ0zi-42" value="" style="endArrow=none;html=1;rounded=0;entryX=1;entryY=0.5;entryDx=0;entryDy=0;entryPerimeter=0;exitX=0.195;exitY=0;exitDx=0;exitDy=0;exitPerimeter=0;" parent="1" target="WEMtZeiqqdGl7kNgZ0zi-34" edge="1">
          <mxGeometry width="50" height="50" relative="1" as="geometry">
            <mxPoint x="731.825" y="331" as="sourcePoint" />
            <mxPoint x="732" y="271" as="targetPoint" />
          </mxGeometry>
        </mxCell>
        <mxCell id="WEMtZeiqqdGl7kNgZ0zi-43" value="" style="endArrow=none;html=1;rounded=0;exitX=1;exitY=0.5;exitDx=0;exitDy=0;" parent="1" source="II_ciXQIS2AuXDwohKdk-185" edge="1">
          <mxGeometry width="50" height="50" relative="1" as="geometry">
            <mxPoint x="667" y="320" as="sourcePoint" />
            <mxPoint x="692" y="320" as="targetPoint" />
          </mxGeometry>
        </mxCell>
        <mxCell id="WEMtZeiqqdGl7kNgZ0zi-45" value="" style="endArrow=none;html=1;rounded=0;exitX=0.8;exitY=0;exitDx=0;exitDy=0;exitPerimeter=0;entryX=1;entryY=0.5;entryDx=0;entryDy=0;entryPerimeter=0;" parent="1" source="WEMtZeiqqdGl7kNgZ0zi-21" target="II_ciXQIS2AuXDwohKdk-153" edge="1">
          <mxGeometry width="50" height="50" relative="1" as="geometry">
            <mxPoint x="712" y="130" as="sourcePoint" />
            <mxPoint x="762" y="80" as="targetPoint" />
          </mxGeometry>
        </mxCell>
        <mxCell id="WEMtZeiqqdGl7kNgZ0zi-46" value="" style="endArrow=none;html=1;rounded=0;" parent="1" edge="1">
          <mxGeometry width="50" height="50" relative="1" as="geometry">
            <mxPoint x="732" y="130" as="sourcePoint" />
            <mxPoint x="782" y="130" as="targetPoint" />
          </mxGeometry>
        </mxCell>
        <mxCell id="WEMtZeiqqdGl7kNgZ0zi-47" value="V&lt;span style=&quot;font-size: 10px;&quot;&gt;&lt;sub&gt;dd2&lt;/sub&gt;&lt;/span&gt;" style="text;html=1;align=center;verticalAlign=middle;resizable=1;points=[];autosize=1;strokeColor=none;fillColor=none;" parent="1" vertex="1">
          <mxGeometry x="667" y="245.25" width="50" height="30" as="geometry" />
        </mxCell>
        <mxCell id="WEMtZeiqqdGl7kNgZ0zi-48" value="V&lt;span style=&quot;font-size: 10px;&quot;&gt;&lt;sub&gt;dd&lt;/sub&gt;&lt;/span&gt;" style="text;html=1;align=center;verticalAlign=middle;resizable=1;points=[];autosize=1;strokeColor=none;fillColor=none;" parent="1" vertex="1">
          <mxGeometry x="710.5" y="46" width="40" height="30" as="geometry" />
        </mxCell>
        <mxCell id="WEMtZeiqqdGl7kNgZ0zi-49" value="GND" style="text;html=1;align=center;verticalAlign=middle;resizable=0;points=[];autosize=1;strokeColor=none;fillColor=none;" parent="1" vertex="1">
          <mxGeometry x="727" y="189.06" width="50" height="30" as="geometry" />
        </mxCell>
        <mxCell id="WEMtZeiqqdGl7kNgZ0zi-50" value="GND&lt;sub&gt;2&lt;/sub&gt;" style="text;html=1;align=center;verticalAlign=middle;resizable=0;points=[];autosize=1;strokeColor=none;fillColor=none;" parent="1" vertex="1">
          <mxGeometry x="235" y="225.25" width="60" height="30" as="geometry" />
        </mxCell>
        <mxCell id="W94_Ny_8JRroIl4L65wI-1" value="" style="endArrow=none;html=1;rounded=0;fontFamily=Helvetica;fontSize=12;fontColor=default;autosize=1;resizable=1;" edge="1" parent="1">
          <mxGeometry width="50" height="50" relative="1" as="geometry">
            <mxPoint x="560" y="269.6" as="sourcePoint" />
            <mxPoint x="610" y="269.6" as="targetPoint" />
          </mxGeometry>
        </mxCell>
        <mxCell id="W94_Ny_8JRroIl4L65wI-2" value="" style="endArrow=none;html=1;rounded=0;fontFamily=Helvetica;fontSize=12;fontColor=default;autosize=1;resizable=1;" edge="1" parent="1">
          <mxGeometry width="50" height="50" relative="1" as="geometry">
            <mxPoint x="560" y="250" as="sourcePoint" />
            <mxPoint x="590" y="250" as="targetPoint" />
          </mxGeometry>
        </mxCell>
        <mxCell id="W94_Ny_8JRroIl4L65wI-3" value="" style="pointerEvents=1;verticalLabelPosition=bottom;shadow=0;dashed=0;align=center;html=1;verticalAlign=top;shape=mxgraph.electrical.resistors.resistor_2;fontFamily=Helvetica;fontSize=12;fontColor=default;autosize=1;resizable=1;fillColor=none;gradientColor=none;direction=south;" vertex="1" parent="1">
          <mxGeometry x="575.5" y="250" width="5" height="20" as="geometry" />
        </mxCell>
      </root>
    </mxGraphModel>
  </diagram>
</mxfile>
